PathFileType	4	(X/Y/Z)	D:\Share\Shared_Data\Ergonomics\Sit To Stand Pertubation\S0\Perturbed STS.trc
DataRate	CameraRate	NumFrames	NumMarkers	Units	OrigDataRate	OrigDataStartFrame	OrigNumFrames	
100	100	16	18	m	100	17655	251
Frame#	Time	R_Heel			R_ASIS			R_Pelvis			V_Sacral			L_Pelvis			L_ASIS			Clavical			R_Acromium			L_Acromium			Sternum			Torso			R_Thigh_Med			R_Thigh_Lat			R_Thigh			R_Shank_Med			R_Shank_Lat			R_Shank			R_Toe			
		X1	Y1	Z1	X2	Y2	Z2	X3	Y3	Z3	X4	Y4	Z4	X5	Y5	Z5	X6	Y6	Z6	X7	Y7	Z7	X8	Y8	Z8	X9	Y9	Z9	X10	Y10	Z10	X11	Y11	Z11	X12	Y12	Z12	X13	Y13	Z13	X14	Y14	Z14	X15	Y15	Z15	X16	Y16	Z16	X17	Y17	Z17	X18	Y18	Z18	

17655	132.89	0.15293637	0.042189404	0.11523695	0.36954398	1.0053662	0.15742424	0.24495444	1.0198477	0.19920309	0.12274161	1.0135541	-0.027269341	0.26476486	1.0060345	-0.20817239	0.37985825	0.98850671	-0.16095377	0.36837137	1.4451509	-0.0056739359	0.28237961	1.5029111	0.13582637	0.27297357	1.5100712	-0.15544739	0.40671854	1.3549662	-0.023482533	0.3722598	1.3996761	-0.12953551	0.28011716	0.49813071	0.027565578	0.28360596	0.51972113	0.15439932	0.37286435	0.64710327	0.089355644	0.24908372	0.10235336	0.070398445	0.19140172	0.08617601	0.15802478	0.22782788	0.31896677	0.17679922	0.37960837	0.044407639	0.1103024
17656	132.9	0.15294766	0.042244652	0.11511946	0.3698183	1.005405	0.15710808	0.24517134	1.0196272	0.19876384	0.12298913	1.0133866	-0.027691738	0.26516968	1.0060602	-0.20852431	0.38018301	0.98864777	-0.16131546	0.36787869	1.4453135	-0.006029541	0.28181519	1.5029625	0.13549411	0.27229593	1.5100443	-0.15579044	0.40637656	1.3552001	-0.023838528	0.37181244	1.3998544	-0.12989304	0.28127884	0.49802689	0.027332008	0.28453751	0.51963611	0.15410391	0.37376181	0.64718353	0.089218597	0.2492453	0.10229079	0.070272614	0.19149133	0.086243866	0.15792503	0.22838727	0.31896796	0.17653206	0.3796647	0.044404057	0.11030759
17657	132.91	0.15296622	0.042299923	0.11500706	0.37005875	1.0054668	0.15680156	0.24534512	1.0194036	0.19831541	0.12320943	1.0131851	-0.028142109	0.26546857	1.0060408	-0.20885107	0.38049622	0.9887832	-0.16166408	0.36741125	1.4454469	-0.0063793116	0.28131296	1.5030127	0.13515787	0.27168524	1.5100123	-0.15613351	0.40604987	1.355403	-0.02418478	0.37139398	1.3999987	-0.1302379	0.28241187	0.49792474	0.027107681	0.28543219	0.51955737	0.15382623	0.37463272	0.64725909	0.089105728	0.24940401	0.10223283	0.070153465	0.19158118	0.086313423	0.15783118	0.22892789	0.31897021	0.17627995	0.37972061	0.044398731	0.11031505
17658	132.92	0.15299384	0.042353786	0.11490278	0.37026981	1.0055477	0.15650262	0.24548389	1.0191821	0.19786407	0.12341357	1.0129437	-0.028614178	0.26566208	1.0059722	-0.20915308	0.3807984	0.98890747	-0.16200073	0.36696387	1.4455476	-0.006721539	0.28086578	1.5030543	0.13481934	0.27113635	1.509969	-0.15647594	0.40573843	1.3555723	-0.024520979	0.37100391	1.4001052	-0.13057097	0.28348346	0.49782498	0.026892906	0.28626819	0.51948621	0.15356688	0.37545712	0.64732513	0.089009239	0.24955504	0.10217944	0.07004364	0.19166936	0.086383408	0.15774525	0.22943744	0.318974	0.17604532	0.37977377	0.044392059	0.11032462
17659	132.93	0.15302841	0.042404732	0.11480914	0.37045642	1.0056407	0.15620889	0.24559705	1.0189678	0.19741576	0.12361033	1.0126634	-0.029098783	0.26575772	1.0058566	-0.20943124	0.38108893	0.98901599	-0.16232742	0.36653503	1.4456158	-0.0070556865	0.28046344	1.5030823	0.1344796	0.27064233	1.5099106	-0.15681723	0.40544183	1.3557078	-0.024847368	0.37064114	1.4001737	-0.13089342	0.28446722	0.49772775	0.026687193	0.28702988	0.51942316	0.15332524	0.37621948	0.64737842	0.088919533	0.24969409	0.10213055	0.069944649	0.1917536	0.086452316	0.15766699	0.22990697	0.31897943	0.17582898	0.37982248	0.044384556	0.11033583
17660	132.94	0.1530658	0.042451294	0.11472776	0.37062393	1.0057375	0.15591806	0.2456947	1.0187654	0.1969761	0.12380549	1.0123513	-0.029584951	0.2657749	1.005704	-0.20969032	0.38136639	0.98910608	-0.16264665	0.36612689	1.4456564	-0.0073827004	0.28009253	1.5030939	0.13413911	0.27019598	1.5098369	-0.15715756	0.4051586	1.3558113	-0.025164932	0.37030399	1.4002068	-0.13120679	0.28534253	0.49763281	0.026488922	0.28770712	0.51936841	0.15309959	0.37690897	0.64741724	0.088825706	0.24981799	0.10208609	0.069856827	0.19183104	0.086518471	0.15759407	0.2303297	0.31898636	0.17563022	0.37986566	0.044376678	0.11034798
17661	132.95	0.15310246	0.042492275	0.11465886	0.37077771	1.0058296	0.15562799	0.24578661	1.0185796	0.19655051	0.12400203	1.0120195	-0.030061352	0.26574811	1.0055316	-0.20994159	0.38162888	0.98917682	-0.16296086	0.36574319	1.4456765	-0.0077042794	0.27973877	1.5030884	0.13379816	0.26978983	1.5097498	-0.15749748	0.40488788	1.3558867	-0.025474937	0.3699902	1.4002107	-0.13151253	0.28609482	0.49754071	0.02629553	0.28829468	0.51932141	0.15288741	0.37751859	0.64744165	0.088716385	0.24992503	0.10204609	0.069779518	0.19189911	0.086580338	0.15752368	0.23070027	0.31899435	0.17544733	0.37990286	0.044368725	0.11036047
17662	132.96	0.15313629	0.042527119	0.11460133	0.37092255	1.0059094	0.15533656	0.24588075	1.0184135	0.19614352	0.12420044	1.0116835	-0.030517918	0.26571783	1.0053599	-0.21020021	0.38187445	0.98922906	-0.16327261	0.36538626	1.4456844	-0.0080217667	0.27938995	1.5030681	0.13345686	0.26941632	1.5096543	-0.15783752	0.40462936	1.3559397	-0.025778288	0.36969711	1.4001927	-0.13181206	0.2867168	0.49745312	0.026104073	0.28879169	0.51928162	0.15268562	0.37804495	0.64745282	0.088580711	0.25001517	0.10201065	0.069711548	0.19195612	0.086636711	0.15745415	0.23101521	0.3190032	0.17527844	0.37993417	0.044360821	0.11037295
17663	132.97	0.15316634	0.042555988	0.11455328	0.37106219	1.0059716	0.15504146	0.24598236	1.0182699	0.19575841	0.12439896	1.0113604	-0.030946955	0.26571313	1.005206	-0.21047734	0.38210138	0.9892655	-0.16358429	0.3650564	1.4456877	-0.0083358898	0.27903796	1.503037	0.13311545	0.26906876	1.5095548	-0.15817795	0.40438196	1.3559766	-0.026075439	0.36942212	1.400161	-0.13210666	0.2872092	0.49737241	0.025911901	0.28920096	0.51924884	0.15249158	0.37848785	0.6474538	0.088409767	0.25008952	0.10198003	0.069651855	0.19200159	0.086686958	0.15738559	0.23127371	0.319013	0.17512195	0.37995975	0.044353069	0.11038524
17664	132.98	0.15319232	0.042579414	0.11451263	0.37119897	1.0060131	0.15474059	0.24609367	1.0181506	0.19539656	0.12459402	1.0110673	-0.031343578	0.26574387	1.0050801	-0.21077574	0.38230838	0.98928931	-0.16389777	0.36475198	1.4456935	-0.0086472044	0.27867914	1.5030007	0.13277425	0.26874133	1.5094565	-0.15851851	0.40414288	1.3560038	-0.026366917	0.36916238	1.4001238	-0.13239754	0.28758011	0.49730066	0.025717392	0.28952725	0.51922314	0.15230321	0.37885007	0.64744727	0.088198303	0.25014981	0.10195453	0.06959951	0.1920356	0.086730881	0.15731949	0.23147742	0.31902435	0.17497662	0.37997986	0.044345684	0.11039711
17665	132.99	0.15321443	0.042598106	0.11447762	0.37133368	1.0060334	0.15443272	0.24621417	1.0180569	0.19505692	0.12478067	1.0108192	-0.031705894	0.26580612	1.0049863	-0.21109103	0.38249451	0.9893045	-0.16421408	0.36446997	1.4457064	-0.0089562025	0.27831415	1.5029652	0.13243384	0.26842969	1.5093632	-0.15885875	0.40390811	1.3560265	-0.026653646	0.36891528	1.4000884	-0.13268558	0.28784265	0.49723865	0.025520477	0.28977606	0.51920471	0.15211911	0.37913666	0.64743573	0.08794648	0.25019809	0.1019344	0.069553741	0.19205856	0.086768669	0.1572576	0.23162965	0.31903809	0.17484143	0.37999475	0.044339058	0.11040826
17666	133	0.15323289	0.042612793	0.11444698	0.37146527	1.0060351	0.15411775	0.24634111	1.0179888	0.19473589	0.12495325	1.0106276	-0.032034958	0.26588885	1.0049244	-0.21141527	0.38265915	0.98931549	-0.16453319	0.36420593	1.4457284	-0.009263114	0.27794696	1.5029362	0.13209485	0.26813065	1.5092784	-0.15919823	0.40367392	1.35605	-0.02693681	0.36867889	1.4000609	-0.13297163	0.28801202	0.49718604	0.025322567	0.28995322	0.51919391	0.15193852	0.37935309	0.64741986	0.087660355	0.25023624	0.10191962	0.069513985	0.19207095	0.086800858	0.15720097	0.2317343	0.31905478	0.17471532	0.38000446	0.044333588	0.11041851
17667	133.01	0.15324817	0.042624268	0.11441983	0.37159079	1.0060225	0.15379655	0.24647005	1.0179457	0.19442841	0.12510603	1.0104995	-0.032334442	0.265979	1.0048917	-0.21174052	0.3828017	0.98932654	-0.16485397	0.36395563	1.4457606	-0.0095680428	0.27758392	1.5029178	0.13175806	0.26784241	1.5092048	-0.15953668	0.40343927	1.3560775	-0.027217583	0.3684523	1.4000452	-0.1332567	0.28810327	0.49714136	0.025125919	0.2900647	0.51919043	0.15176111	0.37950467	0.64739923	0.087351212	0.25026602	0.10190984	0.069479774	0.19207405	0.086828346	0.15715002	0.23179565	0.31907465	0.17459708	0.38000943	0.044329487	0.11042774
17668	133.02	0.15326074	0.042633404	0.11439533	0.37170612	1.0060011	0.15347078	0.2465952	1.0179261	0.19412978	0.12523374	1.0104359	-0.032610031	0.26606461	1.0048829	-0.21206136	0.38292111	0.98934052	-0.16517461	0.36371744	1.4458026	-0.0098714075	0.27723251	1.5029135	0.13142413	0.26756488	1.5091443	-0.15987402	0.40320724	1.3561124	-0.027497126	0.36823569	1.4000437	-0.13354214	0.28813092	0.49710245	0.024932835	0.29011694	0.51919403	0.15158704	0.37959607	0.64737231	0.087033463	0.2502892	0.1019046	0.069450447	0.19206992	0.086852295	0.15710463	0.23181865	0.31909744	0.17448547	0.38001038	0.044326675	0.11043598
17669	133.03	0.1532711	0.042641258	0.11437258	0.37180609	1.0059764	0.15314273	0.24670984	1.0179273	0.19383667	0.12533195	1.0104326	-0.032868683	0.26613678	1.0048932	-0.21237549	0.38301633	0.98935968	-0.16549294	0.36349249	1.4458538	-0.010174169	0.27690033	1.5029236	0.13109355	0.2672998	1.5090978	-0.16020985	0.4029841	1.3561567	-0.027776871	0.36803027	1.4000568	-0.13382939	0.28810907	0.49706717	0.024745203	0.29011716	0.51920355	0.15141673	0.37963217	0.64733698	0.086722137	0.25030789	0.10190323	0.069424927	0.19206084	0.08687394	0.15706387	0.23180937	0.31912296	0.17437897	0.38000839	0.044324997	0.11044349
17670	133.04	0.15327975	0.042648911	0.11435053	0.37188513	1.0059531	0.15281511	0.24680679	1.0179452	0.19354689	0.12539722	1.0104796	-0.033117554	0.26618964	1.0049175	-0.21268269	0.38308636	0.98938464	-0.1658073	0.3632829	1.4459116	-0.010477546	0.2765947	1.5029475	0.13076666	0.2670502	1.5090651	-0.16054353	0.40277673	1.3562095	-0.028058662	0.36783801	1.4000822	-0.13411942	0.28805151	0.49703381	0.024564249	0.29007343	0.51921802	0.15125067	0.3796192	0.64729211	0.086430122	0.25032413	0.10190485	0.069401749	0.19204872	0.086894234	0.15702617	0.23177513	0.31915076	0.17427556	0.380005	0.044324322	0.11045065
